<svg xmlns="http://www.w3.org/2000/svg" viewBox="0 0 79.59 79.46"><defs><style>.cls-1{fill:#8ed6ff;}</style></defs><title>Zasób 1</title><g id="Warstwa_2" data-name="Warstwa 2"><g id="Layer_2" data-name="Layer 2"><path class="cls-1" d="M78.42,13.49,66.05,1.12a4.09,4.09,0,0,0-5.62,0L20.59,41c-.06.06-.09.12-.15.18a3.91,3.91,0,0,0-.27.33c-.08.11-.14.22-.21.33s-.12.22-.18.34a3.91,3.91,0,0,0-.15.41c0,.07-.06.14-.08.21l-4.5,16.87a4,4,0,0,0,4.87,4.87L36.8,60,37,59.9a3.91,3.91,0,0,0,.41-.15l.34-.18.32-.2a3.91,3.91,0,0,0,.34-.28l.17-.14L78.42,19.11a4,4,0,0,0,0-5.62ZM27,45.82,53.12,19.67l6.75,6.75L33.72,52.57,24.52,55Zm38.52-25-6.75-6.75,4.5-4.5L70,16.3Z"/><path class="cls-1" d="M65.63,79.46h-62C1.42,79.46,0,77.32,0,75.13v-62A3.42,3.42,0,0,1,3.62,9.46H29.86a4,4,0,0,1,0,8H8v54H62V48.89a4,4,0,0,1,8,0V75.13A4.64,4.64,0,0,1,65.63,79.46Z"/></g></g></svg>